<?xml version="1.0" encoding="utf-8"?>
<!-- Generator: Adobe Illustrator 15.0.0, SVG Export Plug-In . SVG Version: 6.00 Build 0)  -->
<!DOCTYPE svg PUBLIC "-//W3C//DTD SVG 1.1//EN" "http://www.w3.org/Graphics/SVG/1.1/DTD/svg11.dtd">
<svg version="1.1" id="Calque_1" xmlns="http://www.w3.org/2000/svg" xmlns:xlink="http://www.w3.org/1999/xlink" x="0px" y="0px"
	 width="1000px" height="1000px" viewBox="0 0 1000 1000" enable-background="new 0 0 1000 1000" xml:space="preserve">
<rect x="-5620.001" y="500" width="100" height="100"/>
<rect x="-5620.001" y="200" width="100" height="200"/>
<rect x="-4620.002" y="500" width="100" height="100"/>
<rect x="-4620.002" y="300" width="100" height="100"/>
<rect x="-4720.001" y="200" width="300" height="100"/>
<rect x="-3620.002" y="200" width="100" height="500"/>
<rect x="-2620.001" y="200" width="299.999" height="100"/>
<g>
	<polygon points="80,100 80,100.008 80,800 180,800 180,200.01 280,200.012 280,800 380,800 380,100 	"/>
	<polygon points="-1220.004,200.014 -1219.997,100.014 -1919.998,100 -1920,800 -1820,800 -1820,200.002 -1720,200.004 
		-1720.003,399.993 -1720,399.993 -1720,400 -1220.006,400.003 -1220,300.003 -1620,299.995 -1620,200.006 	"/>
	<polygon points="-1220.006,600.003 -1220,500.003 -1720.001,499.993 -1720.003,799.993 -1720,799.993 -1720,800 -1620,800 
		-1620,799.995 -1220.006,800.003 -1220,700.003 -1620,699.995 -1620,599.995 	"/>
	<polygon points="-220.004,200.014 -219.997,100.014 -919.998,100 -920.003,799.989 -920,799.989 -920,800 -220.008,800.003 
		-220,700.003 -620,699.995 -620,599.995 -220.006,600.003 -220,500.003 -720.001,499.993 -720,699.993 -820,699.991 -820,200.002 
		-720,200.004 -720.003,399.993 -720,399.993 -720,400 -220.006,400.003 -220,300.003 -620,299.995 -620,200.006 	"/>
	<polygon points="480.003,100 480.003,100.008 480.002,100.008 480.003,800 580.003,800 580.003,200.01 680.003,200.012 
		680.003,800 780.003,800 780.003,100 	"/>
</g>
</svg>
