<?xml version="1.0" encoding="utf-8"?>
<!-- Generator: Adobe Illustrator 15.0.0, SVG Export Plug-In . SVG Version: 6.00 Build 0)  -->
<!DOCTYPE svg PUBLIC "-//W3C//DTD SVG 1.1//EN" "http://www.w3.org/Graphics/SVG/1.1/DTD/svg11.dtd">
<svg version="1.1" id="Calque_1" xmlns="http://www.w3.org/2000/svg" xmlns:xlink="http://www.w3.org/1999/xlink" x="0px" y="0px"
	 width="1000px" height="1000px" viewBox="0 0 1000 1000" enable-background="new 0 0 1000 1000" xml:space="preserve">
<rect x="-3880" y="700" width="100" height="100"/>
<rect x="-3680" y="700" width="100" height="100"/>
<rect x="-3480" y="700" width="100" height="100"/>
<rect x="-3280" y="700" width="100" height="100"/>
<rect x="-580" y="200" width="100" height="100"/>
<rect x="-3880" y="100" width="700" height="100"/>
<rect x="-3880" y="300" width="700" height="100"/>
<rect x="-3880" y="500" width="700" height="100"/>
<rect x="-2880" y="100" width="700" height="100"/>
<rect x="-2880" y="300" width="700" height="100"/>
<rect x="-2880" y="500" width="700" height="100"/>
<rect x="-2880" y="700" width="700" height="100"/>
<rect x="-1880" y="100" width="300" height="100"/>
<rect x="-1880" y="300" width="300" height="100"/>
<rect x="-1880" y="500" width="300" height="100"/>
<rect x="-1880" y="700" width="300" height="100"/>
<rect x="-1480" y="100" width="300" height="100"/>
<rect x="-1480" y="300" width="300" height="100"/>
<rect x="-1480" y="500" width="300" height="100"/>
<rect x="-1480" y="700" width="300" height="100"/>
<rect x="419.999" y="200" width="100" height="200"/>
<rect x="1419.999" y="200" width="100" height="100"/>
<rect x="1419.999" y="400" width="100" height="200"/>
<rect x="2520" y="200" width="100" height="100"/>
<rect x="2520" y="400" width="100" height="100"/>
<rect x="3420" y="300" width="100" height="100"/>
<rect x="3620" y="300" width="100" height="100"/>
</svg>
