<?xml version="1.0" encoding="utf-8"?>
<!-- Generator: Adobe Illustrator 15.0.0, SVG Export Plug-In . SVG Version: 6.00 Build 0)  -->
<!DOCTYPE svg PUBLIC "-//W3C//DTD SVG 1.1//EN" "http://www.w3.org/Graphics/SVG/1.1/DTD/svg11.dtd">
<svg version="1.1" id="Calque_1" xmlns="http://www.w3.org/2000/svg" xmlns:xlink="http://www.w3.org/1999/xlink" x="0px" y="0px"
	 width="1000px" height="1000px" viewBox="0 0 1000 1000" enable-background="new 0 0 1000 1000" xml:space="preserve">
<rect x="-7040" y="100" width="100" height="100"/>
<rect x="-6840" y="100" width="100" height="100"/>
<rect x="-6640" y="100" width="100" height="100"/>
<rect x="-6440" y="100" width="100" height="100"/>
<rect x="-7040" y="300" width="100" height="100"/>
<rect x="-6840" y="300" width="100" height="100"/>
<rect x="-6640" y="300" width="100" height="100"/>
<rect x="-6440" y="300" width="100" height="100"/>
<rect x="-7040" y="500" width="100" height="100"/>
<rect x="-6840" y="500" width="100" height="100"/>
<rect x="-6640" y="500" width="100" height="100"/>
<rect x="-6440" y="500" width="100" height="100"/>
<rect x="-7040" y="700" width="100" height="100"/>
<rect x="-6840" y="700" width="100" height="100"/>
<rect x="-6640" y="700" width="100" height="100"/>
<rect x="-6440" y="700" width="100" height="100"/>
<rect x="-5940" y="100" width="100" height="700"/>
<rect x="-5740" y="100" width="500" height="100"/>
<rect x="-5740" y="300" width="500" height="100"/>
<rect x="-5740" y="500" width="500" height="100"/>
<rect x="-5740" y="700" width="500" height="100"/>
<rect x="-4940" y="100" width="100" height="700"/>
<rect x="-4740" y="100" width="100" height="700"/>
<rect x="-4540" y="100" width="300" height="100"/>
<rect x="-4540" y="300" width="300" height="100"/>
<rect x="-4540" y="500" width="300" height="100"/>
<rect x="-4540" y="700" width="300" height="100"/>
<rect x="-3940" y="100" width="100" height="700"/>
<rect x="-3740" y="100" width="100" height="700"/>
<rect x="-3540" y="100" width="100" height="700"/>
<rect x="-2940" y="100" width="100" height="700"/>
<rect x="-2740" y="100" width="100" height="700"/>
<rect x="-2540" y="100" width="100" height="700"/>
<rect x="-2340" y="100" width="100" height="700"/>
<rect x="-940" y="300" width="100" height="500"/>
<rect x="-740" y="300" width="100" height="500"/>
<rect x="-540" y="300" width="100" height="500"/>
<rect x="-340" y="300" width="100" height="500"/>
<rect x="-1840" y="100" width="100" height="300"/>
<rect x="-1640" y="100" width="100" height="300"/>
<rect x="-1440" y="100" width="100" height="300"/>
<rect x="-1240" y="100" width="100" height="300"/>
<rect x="-1840" y="500" width="100" height="300"/>
<rect x="-1640" y="500" width="100" height="300"/>
<rect x="-1440" y="500" width="100" height="300"/>
<rect x="-1240" y="500" width="100" height="300"/>
<rect x="-3340" y="100" width="100" height="100"/>
<rect x="-940" y="100" width="700" height="100"/>
<rect x="160" y="500" width="100" height="300"/>
<rect x="360" y="500" width="100" height="300"/>
<rect x="560" y="500" width="100" height="300"/>
<rect x="760" y="500" width="100" height="300"/>
<rect x="160" y="100" width="700" height="100"/>
<rect x="160" y="300" width="700" height="100"/>
<rect x="-3340" y="300" width="100" height="100"/>
<rect x="-3340" y="500" width="100" height="100"/>
<rect x="-3340" y="700" width="100" height="100"/>
</svg>
