<?xml version="1.0" encoding="utf-8"?>
<!-- Generator: Adobe Illustrator 15.0.0, SVG Export Plug-In . SVG Version: 6.00 Build 0)  -->
<!DOCTYPE svg PUBLIC "-//W3C//DTD SVG 1.1//EN" "http://www.w3.org/Graphics/SVG/1.1/DTD/svg11.dtd">
<svg version="1.1" id="Calque_1" xmlns="http://www.w3.org/2000/svg" xmlns:xlink="http://www.w3.org/1999/xlink" x="0px" y="0px"
	 width="1000px" height="1000px" viewBox="0 0 1000 1000" enable-background="new 0 0 1000 1000" xml:space="preserve">
<g>
	<polygon points="-121.126,100 -419.999,100 -420,100 -419.999,400 -320.563,400 -320.563,200 -220.563,200 -220.563,500 
		-419.999,500 -420,500 -420,800 -419.999,800 -320.563,800 -120.563,800 -120.563,700 -320.563,700 -320.563,600 -120.563,600 
		-120.563,100 -121.126,100 	"/>
	<polygon points="879.434,100 180,100 180,200.001 780,200.001 780,299.999 180,299.999 180,400 879.434,400 879.437,400 
		879.437,100 	"/>
	<polygon points="180.563,500 180,500 180,800 180.563,800 280,800 879.434,800 879.434,699.999 280,699.999 280,600.001 
		879.434,600.001 879.434,500 	"/>
	<polygon points="-818.874,99.999 -819.437,99.999 -819.437,600 -619.437,600 -619.438,700 -820,700 -820,800 -520.563,800 
		-520.563,799.999 -520.001,799.999 -520,600 -520,600 -520,500 -719.438,500 -719.437,199.999 -619.437,199.999 -619.437,399.999 
		-520,399.999 -520,99.999 -520,99.999 	"/>
</g>
</svg>
