<?xml version="1.0" encoding="utf-8"?>
<!-- Generator: Adobe Illustrator 15.0.0, SVG Export Plug-In . SVG Version: 6.00 Build 0)  -->
<!DOCTYPE svg PUBLIC "-//W3C//DTD SVG 1.1//EN" "http://www.w3.org/Graphics/SVG/1.1/DTD/svg11.dtd">
<svg version="1.1" id="Calque_1" xmlns="http://www.w3.org/2000/svg" xmlns:xlink="http://www.w3.org/1999/xlink" x="0px" y="0px"
	 width="1000px" height="1000px" viewBox="0 0 1000 1000" enable-background="new 0 0 1000 1000" xml:space="preserve">
<g>
	<polygon points="-7039.437,100 -7039.438,100 -7039.437,400 -6940,400 -6940,200 -6840,200 -6840,700 -6940,700 -6940,500 
		-7039.437,500 -7039.438,800 -7039.437,800 -6940,800 -6840,800 -6740.563,800 -6740,800 -6740,100 -6740.563,100 	"/>
	<polygon points="-6640,100 -6640,800 -6540.563,800 -6440,800 -6340.563,800 -6340.563,800 -6340.563,500 -6440,500 -6440,700 
		-6540.563,700 -6540.563,200 -6440,200 -6440,400 -6340.563,400 -6340.563,100 -6340.563,100 	"/>
	<polygon points="-5940,100.563 -5940,200 -5340,200 -5340,700 -5840,700 -5840,399.437 -5540,399.437 -5540,500 -5740,500 
		-5740,599.437 -5440,599.438 -5440,599.437 -5440,300 -5940,300 -5940,300.563 -5940,799.437 -5940,800 -5240,799.438 
		-5240,799.437 -5240,100.563 -5240,100 	"/>
	<polygon points="-4740,100.563 -4740,100.563 -4740,300.563 -4840,300.563 -4840,100.563 -4940,100.563 -4940,300.563 -4940,400 
		-4640,400 -4640,200 -4340,200 -4340,300 -4540,300 -4540,400 -4240,400 -4240,399.437 -4240,100.563 -4240,100 	"/>
	<polygon points="-3340,300.563 -3440,300.563 -3440,100 -3540,100 -3540,399.438 -3540,400 -3240,400 -3240,399.438 -3240,100 
		-3340,100 	"/>
	<polygon points="-3640,500 -3640,100 -3740,100 -3740,599.437 -3740,599.438 -3340,599.437 -3340,700 -3840,700 -3840,100 
		-3940,100 -3940,799.437 -3940,799.438 -3240,799.438 -3240,799.437 -3240,500 	"/>
	<polygon points="-2540,100 -2540,700 -2640,700 -2640,100 -2940,100 -2940,799.438 -2840,799.438 -2840,199.437 -2740,199.437 
		-2740,799.437 -2740,799.438 -2440,799.438 -2440,799.437 -2440,700 -2440,199.437 -2340,199.437 -2340,799.438 -2240,799.438 
		-2240,100 	"/>
	<polygon points="-1340,700 -1440,700 -1440,100 -1540,100 -1540,799.437 -1540,799.438 -1440,799.438 -1440,799.437 -1340,799.437 
		-1340,799.438 -1240,799.438 -1240,799.437 -1240,100 -1340,100 	"/>
	<polygon points="-1940,100 -1940,799.438 -1840,799.438 -1840,199.437 -1740,199.437 -1740,799.438 -1640,799.438 -1640,100 	"/>
	<polygon points="160,100 160,799.438 260,799.438 260,199.437 760,199.437 760,300.563 360,300 360,300.563 360,799.438 
		460,799.438 460,400 760,400 860,400 860,100.563 860,100 	"/>
	<polygon points="560,500 560,799.438 660,799.438 660,599.437 760,599.437 760,799.438 860,799.438 860,500 	"/>
	<polygon points="-4540,600 -4340,600 -4340,700 -4640,700 -4640,500 -4940,500 -4940,799.438 -4840,799.438 -4840,599.437 
		-4740,599.437 -4740,799.437 -4740,799.438 -4240,799.438 -4240,799.437 -4240,500.563 -4540,500.563 	"/>
	<polygon points="-539.437,100 -539.438,100 -539.437,400 -440,400 -440,200 -340,200 -340,700 -440,700 -440,500 -539.437,500 
		-539.438,800 -539.437,800 -440,800 -340,800 -240.563,800 -240,800 -240,100 -240.563,100 	"/>
	<polygon points="-940,100 -940,700 -940,800 -840.563,800 -740,800 -640.563,800 -640.563,800 -640.563,700 -640.563,700 
		-640.563,500 -740,500 -740,700 -840.563,700 -840.563,200 -740,200 -740,400 -640.563,400 -640.563,100 -640.563,100 	"/>
</g>
</svg>
