<?xml version="1.0" encoding="utf-8"?>
<!-- Generator: Adobe Illustrator 15.0.0, SVG Export Plug-In . SVG Version: 6.00 Build 0)  -->
<!DOCTYPE svg PUBLIC "-//W3C//DTD SVG 1.1//EN" "http://www.w3.org/Graphics/SVG/1.1/DTD/svg11.dtd">
<svg version="1.1" id="Calque_1" xmlns="http://www.w3.org/2000/svg" xmlns:xlink="http://www.w3.org/1999/xlink" x="0px" y="0px"
	 width="1000px" height="1000px" viewBox="0 0 1000 1000" enable-background="new 0 0 1000 1000" xml:space="preserve">
<g>
	<polygon points="-6840,300.563 -6840,300.563 -6840,800 -6740,800 -6740,400 -6640.001,400 -6640.001,800 -6540,800 -6540,400 
		-6539.999,400 -6539.999,300.563 -6540,300.563 	"/>
	<polygon points="-7040,100.563 -7040,800 -6940,800 -6940,199.437 -6440,199.437 -6440,800 -6340,800 -6340,100.563 -6340,100 
		-7040,100 	"/>
	<polygon points="-5240,100.563 -5240,100 -5740,100 -5740,199.437 -5340,199.437 -5340,300.563 -5840,300.563 -5840,100.563 
		-5940,100.563 -5940,400 -5240,400 -5239.999,400 	"/>
	<polygon points="-5940,798.873 -5840,798.873 -5840,599.437 -5340,599.437 -5340,700 -5740,700 -5740,799.437 -5240,799.437 
		-5240,798.873 -5239.999,500 -5940,500 	"/>
	<polygon points="-4240.001,100 -4940.001,100 -4940.001,100.563 -4940.001,799.437 -4240.001,799.437 -4240,799.437 -4240,500 
		-4240.001,500 -4740.001,500 -4740.001,599.437 -4340,599.437 -4340,700 -4840.001,700 -4840.001,199.437 -4340,199.437 
		-4340,300.563 -4740.001,300.563 -4740.001,400 -4240.001,400 -4240,400 -4240,100.563 -4240.001,100.563 	"/>
	<polygon points="-3740,100.563 -3740,200 -3340,200 -3340,700 -3740,700 -3740,799.437 -3240,799.437 -3240,100.563 	"/>
	<polygon points="-3440,599.437 -3440,300 -3840,300 -3840,100.563 -3940,100.563 -3940,399.437 -3940,400 -3840,400 -3840,399.437 
		-3540,399.437 -3540,500 -3940,500 -3940,799.437 -3840,799.437 -3840,599.437 	"/>
	<polygon points="-2940,100 -2940,100.563 -2940,399.437 -2940,400 -2240,400 -2240,300.563 -2840,300.563 -2840,200 -2240,200 
		-2240,100.563 	"/>
	<polygon points="-2940,500.563 -2940,799.437 -2240,800 -2240,700.563 -2840,700.563 -2840,600 -2240,600 -2240,500.563 
		-2840,500.563 	"/>
	<polygon points="-1940,100 -1940,100.563 -1940,799.437 -1940,799.438 -1640,799.438 -1640,799.437 -1640,399.437 -1240,399.437 
		-1240,300 -1740,300 -1740,700 -1840,700 -1840,200 -1240,200 -1240,100.563 	"/>
	<polygon points="-1540,500 -1540,500.563 -1540,799.437 -1540,799.438 -1440,799.438 -1440,799.437 -1240,799.437 -1240,700 
		-1440,700 -1440,600 -1240,600 -1240,500 	"/>
	<polygon points="-140,200 -140,100.563 -840,100 -840,100.563 -840,799.437 -840,799.438 -140,800 -140,799.437 -140,300.563 
		-140,300 -640,300 -640,599.437 -640,599.438 -540,599.438 -340,599.437 -340,500 -540,500 -540,399.437 -240,399.437 -240,700 
		-740,700 -740,200 	"/>
	<polygon points="760,100.563 760,100.563 560,100.563 560,200 760,200 760,300 260,300 260,200 460,200 460,100.563 260,100.563 
		260,100.563 160,100.563 160,100.563 160,200 160,300 160,399.437 160,400 860,400 860,399.437 860,300 860,200 860,100.563 
		860,100.563 	"/>
	<polygon points="160,500 160,799.437 160,799.438 460,799.437 460,700 260,700 260,599.437 760,599.437 760,700 560,700 
		560,799.437 860,799.438 860,799.437 860,500 	"/>
</g>
</svg>
